# AST/ASF file generated using VICON BodyLanguage
# -----------------------------------------------
:version 1.10
:name VICON
:units
  mass 1.0
  length 0.45
  angle deg
:documentation
   .ast/.asf automatically generated from VICON data using
   VICON BodyBuilder and BodyLanguage model FoxedUp or BRILLIANT.MOD
:root
   order TX TY TZ RX RY RZ
   axis XYZ
   position 0 0 0  
   orientation 0 0 0 
:bonedata
  begin
     id 1 
     name lhipjoint
     direction 0.54267 -0.795011 0.271047 
     length 2.39899 
     axis 0 0 0  XYZ
  end
  begin
     id 2 
     name lfemur
     direction 0.34202 -0.939693 0  
     length 7.49701  
     axis 0 0 20  XYZ
    dof rx ry rz
    limits (-160.0 20.0)
           (-70.0 70.0)
           (-60.0 70.0)
  end
  begin
     id 3 
     name ltibia
     direction 0.34202 -0.939693 0   
     length 8.1668   
     axis 0 0 20   XYZ
    dof rx
    limits (-10.0 170.0)
  end
  begin
     id 4 
     name lfoot
     direction 0.0736283 -0.202292 0.976554   
     length 2.13544   
     axis -90 7.62852e-016 20   XYZ
    dof rx rz
    limits (-45.0 90.0)
           (-70.0 20.0)
  end
  begin
     id 5 
     name ltoes
     direction 1.53557e-011 -4.22024e-011 1   
     length 1.07411   
     axis -90 7.62852e-016 20   XYZ
    dof rx
    limits (-90.0 20.0)
  end
  begin
     id 6 
     name rhipjoint
     direction -0.538061 -0.797813 0.272002   
     length 2.39057  
     axis 0 0 0  XYZ 
  end
  begin
     id 7 
     name rfemur
     direction -0.34202 -0.939693 0   
     length 7.50152   
     axis 0 0 -20   XYZ
    dof rx ry rz
    limits (-160.0 20.0)
           (-70.0 70.0)
           (-70.0 60.0)
  end
  begin
     id 8 
     name rtibia
     direction -0.34202 -0.939693 0   
     length 8.05793   
     axis 0 0 -20   XYZ
    dof rx
    limits (-10.0 170.0)
 end
 begin
     id 9 
     name rfoot
     direction -0.0765195 -0.210236 0.974652   
     length 2.28698  
     axis -90 -7.62852e-016 -20   XYZ
    dof rx rz
    limits (-45.0 90.0)
           (-20.0 70.0)
  end
  begin
     id 10 
     name rtoes
     direction -1.53542e-011 -4.21847e-011 1   
     length 1.14762   
     axis -90 -7.62852e-016 -20   XYZ
    dof rx
    limits (-90.0 20.0)
  end
  begin
     id 11 
     name lowerback
     direction -0.0217239 0.996592 -0.0795765   
     length 2.08176   
     axis 0 0 0   XYZ
    dof rx ry rz
    limits (-20.0 45.0)
           (-30.0 30.0)
           (-30.0 30.0)
  end
  begin
     id 12 
     name upperback
     direction -0.00563773 0.999651 -0.0258155   
     length 2.08898   
     axis 0 0 0   XYZ
    dof rx ry rz
    limits (-20.0 45.0)
           (-30.0 30.0)
           (-30.0 30.0)
  end
  begin
     id 13 
     name thorax
     direction 0.0032706 0.999923 0.0119599   
     length 2.0968   
     axis 0 0 0   XYZ
    dof rx ry rz
    limits (-20.0 45.0)
           (-30.0 30.0)
           (-30.0 30.0)
  end
  begin
     id 14 
     name lowerneck
     direction -0.0285886 0.99568 0.0883427   
     length 1.81272   
     axis 0 0 0   XYZ
    dof rx ry rz
    limits (-20.0 45.0)
           (-30.0 30.0)
           (-30.0 30.0)
  end
  begin
     id 15 
     name upperneck
     direction 0.0807535 0.97985 -0.18268   
     length 1.82518   
     axis 0 0 0   XYZ
    dof rx ry rz
    limits (-20.0 45.0)
           (-30.0 30.0)
           (-30.0 30.0)
  end
  begin
     id 16
     name head
     direction 0.0236605 0.997053 -0.0729767  
     length 1.84443  
     axis 0 0 0   XYZ
    dof rx ry rz
    limits (-20.0 45.0)
           (-30.0 30.0)
           (-30.0 30.0)
  end
  begin
     id 17 
     name lclavicle
     direction 0.918986 0.39378 -0.0200683  
     length 3.27822  
     axis 0 0 0   XYZ
    dof ry rz
    limits (-20.0 10.0)
           (0.0 20.0)
  end
  begin
     id 18 
     name lhumerus
     direction 1 -4.4897e-011 2.09544e-027   
     length 5.5568   
     axis 180 -30 -90   XYZ
    dof rx ry rz
    limits (-60.0 90.0)
           (-90.0 90.0)
           (-90.0 90.0)
  end
  begin
     id 19
     name lradius
     direction 1 -4.48957e-011 -1.27696e-026   
     length 3.63979   
     axis 180 -30 -90   XYZ
    dof rx
    limits (-10.0 170.0)
  end
  begin
     id 20
     name lwrist
     direction 1 -4.49001e-011 -1.49001e-026   
     length 1.8199   
     axis 9.0955e-015 90 90   XYZ
    dof ry
    limits (-180.0 0.0)
 end
  begin
     id 21 
     name lhand
     direction 1 -4.48709e-011 -2.9758e-026   
     length 0.569419   
     axis 1.90115e-014 90 90   XYZ
    dof rx rz
    limits (-90.0 90.0)
           (-45.0 45.0)
  end
  begin
     id 22 
     name lfingers
     direction 1 -4.49175e-011 -5.96505e-026   
     length 0.45908   
     axis 3.80223e-014 90 90   XYZ
    dof rx
    limits (0.0 90.0)
  end
  begin
     id 23
     name lthumb
     direction 0.707107 -6.34864e-011 0.707107   
     length 0.65915   
     axis -90 45 -3.84942e-014   XYZ
    dof rx rz
    limits (-45.0 45.0)
           (-45.0 45.0)
  end
  begin
     id 24 
     name rclavicle
     direction -0.911913 0.396426 -0.106115   
     length 3.46301  
     axis 0 0 0   XYZ 
    dof ry rz
    limits (-10.0 20.0)
           (-20.0 0.0)
  end
  begin
     id 25 
     name rhumerus
     direction -1 -4.48965e-011 7.78516e-028  
     length 5.34339   
     axis 180 30 90   XYZ
    dof rx ry rz
    limits (-90.0 60.0)
           (-90.0 90.0)
           (-90.0 90.0)
  end
  begin
     id 26 
     name rradius
     direction -1 -4.48948e-011 -5.79823e-027   
     length 3.65101   
     axis 180 30 90   XYZ
    dof rx
    limits (-10.0 170.0)
  end
  begin
     id 27 
     name rwrist
     direction -1 -4.48995e-011 -1.48996e-026   
     length 1.8255   
     axis 9.0955e-015 -90 -90   XYZ
    dof ry
    limits (-180.0 0.0)
  end
  begin
     id 28
     name rhand
     direction -1 -4.48957e-011 -2.97937e-026   
     length 0.694249   
     axis 1.90115e-014 -90 -90   XYZ
    dof rx rz
    limits (-90.0 90.0)
           (-45.0 45.0)
  end
  begin
     id 29
     name rfingers
     direction -1 -4.4898e-011 -5.95943e-026   
     length 0.559721   
     axis 3.80223e-014 -90 -90   XYZ
    dof rx
    limits (0.0 90.0)
  end
  begin
     id 30
     name rthumb
     direction -0.707107 -6.34969e-011 0.707107   
     length 0.803651   
     axis -90 -45 3.84942e-014   XYZ
    dof rx rz
    limits (-45.0 45.0)
           (-45.0 45.0)
  end
:hierarchy
  begin
    root lhipjoint rhipjoint lowerback
    lhipjoint lfemur
    lfemur ltibia
    ltibia lfoot
    lfoot ltoes
    rhipjoint rfemur
    rfemur rtibia
    rtibia rfoot
    rfoot rtoes
    lowerback upperback
    upperback thorax
    thorax lowerneck lclavicle rclavicle
    lowerneck upperneck
    upperneck head
    lclavicle lhumerus
    lhumerus lradius
    lradius lwrist
    lwrist lhand lthumb
    lhand lfingers
    rclavicle rhumerus
    rhumerus rradius
    rradius rwrist
    rwrist rhand rthumb
    rhand rfingers
  end

#!OML:ASF H:\Terrain\Walking\May29\JustinRory\rory.ASF
:FULLY-SPECIFIED
:DEGREES
177
root 12.5881 11.1364 12.2226 -17.6301 20.8624 -2.06012
lowerback 45.2901 -7.38048 -2.2097
upperback 17.8846 -8.83973 4.92075
thorax 0.309524 -4.78245 9.51554
lowerneck 3.12216 -20.4692 -11.7455
upperneck 24.3164 -33.9858 23.3251
head 14.5847 -15.1856 5.4991
rclavicle -4.63168e-014 8.60738e-014
rhumerus -68.6443 -33.1159 -27.831
rradius 100.99
rwrist 23.4525
rhand -31.7761 28.4883
rfingers 7.12502
rthumb -5.03259 -1.43198
lclavicle -4.63168e-014 8.60738e-014
lhumerus -8.62997 2.83378 32.7907
lradius 71.4247
lwrist 10.0327
lhand -25.2277 6.90039
lfingers 7.12502
lthumb 1.29161 36.8762
rfemur -72.7085 1.99544 6.28744
rtibia 91.4245
rfoot -11.2292 0.754671
rtoes -11.1937
lfemur -64.3163 9.87972 9.59441
ltibia 72.7076
lfoot -4.15904 -6.05799
ltoes -24.1154
178
root 12.5543 11.2257 12.1695 -17.0276 21.2612 -1.87094
lowerback 45.2925 -7.43921 -2.27606
upperback 17.6362 -8.9197 4.95333
thorax 0.0516136 -4.80666 9.63032
lowerneck 2.81319 -20.5912 -11.3721
upperneck 24.4955 -34.2281 23.31
head 14.7125 -15.224 5.35797
rclavicle -3.27995e-014 -3.29983e-014
rhumerus -68.0581 -33.6989 -28.4586
rradius 100.197
rwrist 23.2236
rhand -31.3806 29.5069
rfingers 7.12502
rthumb -4.65069 -0.422075
lclavicle -3.27995e-014 -3.29983e-014
lhumerus -8.38831 2.26142 33.0107
lradius 70.9889
lwrist 9.89749
lhand -25.4348 6.92956
lfingers 7.12502
lthumb 1.09162 36.9065
rfemur -72.5825 2.06773 5.93815
rtibia 90.5999
rfoot -11.6089 0.125988
rtoes -11.6316
lfemur -64.51 10.0072 8.85463
ltibia 72.0498
lfoot -4.72111 -4.83625
ltoes -23.8863
179
root 12.511 11.31 12.1293 -16.6644 21.5035 -1.75544
lowerback 45.3549 -7.32376 -2.5347
upperback 17.4733 -8.87076 5.04866
thorax -0.115796 -4.79408 9.86463
lowerneck 2.56036 -20.6933 -10.9561
upperneck 24.6048 -34.4221 23.2945
head 14.7733 -15.2483 5.23118
rclavicle -4.57205e-014 6.24184e-014
rhumerus -67.1985 -34.1382 -29.0558
rradius 99.1625
rwrist 23.3904
rhand -31.356 30.5849
rfingers 7.12502
rthumb -4.62693 0.65542
lclavicle -4.57205e-014 6.24184e-014
lhumerus -8.33885 1.69586 33.2106
lradius 70.7058
lwrist 9.62842
lhand -25.6779 7.1176
lfingers 7.12502
lthumb 0.856836 37.0956
rfemur -72.3283 2.4271 5.72445
rtibia 89.8752
rfoot -12.0194 -0.952643
rtoes -13.149
lfemur -64.2807 10.1561 8.36284
ltibia 71.3871
lfoot -5.55629 -4.20045
ltoes -26.3274
180
root 12.4733 11.3834 12.0844 -16.1169 21.9164 -1.51517
lowerback 45.4877 -7.23961 -2.85486
upperback 17.1898 -8.88015 5.1102
thorax -0.424836 -4.79889 10.1271
lowerneck 2.43188 -20.828 -10.5748
upperneck 24.5891 -34.6509 23.3471
head 14.7849 -15.3097 5.13487
rclavicle -7.45443e-014 5.26779e-014
rhumerus -66.5876 -34.6822 -29.6595
rradius 97.9403
rwrist 23.926
rhand -32.2105 31.8824
rfingers 7.12502
rthumb -5.45198 1.97254
lclavicle -7.45443e-014 5.26779e-014
lhumerus -8.3371 1.18789 33.2354
lradius 70.494
lwrist 9.04518
lhand -25.7958 7.18776
lfingers 7.12502
lthumb 0.742929 37.1662
rfemur -72.3217 2.43666 5.35927
rtibia 89.2493
rfoot -12.2806 -2.22569
rtoes -16.0175
lfemur -64.1922 10.1162 7.72286
ltibia 70.7287
lfoot -6.25959 -4.13293
ltoes -27.8541
181
root 12.4566 11.4648 12.0142 -15.1518 22.6777 -1.03098
lowerback 45.4588 -7.49727 -2.87113
upperback 16.8132 -9.18011 4.97451
thorax -0.807303 -4.89807 10.1166
lowerneck 2.16252 -20.955 -10.2173
upperneck 24.4618 -34.9186 23.6121
head 14.8513 -15.3747 5.08572
rclavicle 3.73715e-014 -6.71892e-014
rhumerus -66.3025 -35.435 -30.2649
rradius 96.7489
rwrist 24.7361
rhand -33.8529 33.0557
rfingers 7.12502
rthumb -7.03759 3.19273
lclavicle 3.73715e-014 -6.71892e-014
lhumerus -8.02057 0.821233 32.9665
lradius 70.0697
lwrist 8.52002
lhand -25.8016 7.12483
lfingers 7.12502
lthumb 0.737388 37.1033
rfemur -72.4123 1.81641 4.57932
rtibia 88.5807
rfoot -12.7787 -3.30206
rtoes -18.383
lfemur -64.7031 9.68702 6.68014
ltibia 70.1511
lfoot -6.28268 -4.41245
ltoes -28.7921
182
root 12.4373 11.5465 11.9419 -14.2841 23.0834 -0.95641
lowerback 45.1535 -7.73913 -2.56382
upperback 16.5786 -9.34523 4.87714
thorax -1.01772 -4.92968 9.91112
lowerneck 1.8096 -21.0468 -9.93834
upperneck 24.343 -35.1586 23.9281
head 14.9657 -15.4207 5.05874
rclavicle 4.14466e-014 -5.45664e-014
rhumerus -65.9622 -36.1082 -30.7822
rradius 95.8074
rwrist 25.0898
rhand -35.166 34.1059
rfingers 7.12502
rthumb -8.30502 4.28912
lclavicle 4.14466e-014 -5.45664e-014
lhumerus -7.71862 0.617522 32.6196
lradius 69.7331
lwrist 8.12424
lhand -25.7852 6.93782
lfingers 7.12502
lthumb 0.753181 36.9162
rfemur -72.793 1.55113 4.24277
rtibia 88.0115
rfoot -13.5741 -4.18398
rtoes -17.7342
lfemur -65.2757 9.4883 6.29006
ltibia 69.8007
lfoot -5.91061 -5.05694
ltoes -29.0266
183
root 12.4028 11.5952 11.8957 -13.7652 22.9457 -1.40393
lowerback 44.8972 -7.60622 -2.38576
upperback 16.3662 -9.11421 5.06004
thorax -1.22902 -4.80535 9.94321
lowerneck 1.84288 -21.0866 -10.0316
upperneck 24.2286 -35.2479 24.1017
head 15.0015 -15.4702 5.1056
rclavicle -4.30369e-014 -1.66979e-014
rhumerus -65.5523 -36.3435 -31.0489
rradius 94.9439
rwrist 24.9532
rhand -35.6212 34.935
rfingers 7.12502
rthumb -8.74429 5.13616
lclavicle -4.30369e-014 -1.66979e-014
lhumerus -7.85738 0.361343 32.4722
lradius 69.7034
lwrist 7.67176
lhand -25.9822 6.86887
lfingers 7.12502
lthumb 0.562896 36.8479
rfemur -73.4217 1.9756 4.61755
rtibia 87.6254
rfoot -14.3413 -5.1869
rtoes -14.7054
lfemur -65.5645 9.81796 6.78688
ltibia 69.7616
lfoot -5.29722 -6.09564
ltoes -28.5078
184
root 12.3753 11.6238 11.8593 -13.224 22.7597 -1.72118
lowerback 44.7445 -7.40906 -2.33505
upperback 16.1098 -8.86075 5.17701
thorax -1.51409 -4.66816 9.96969
lowerneck 1.92365 -21.1326 -10.0887
upperneck 24.0725 -35.3707 24.3657
head 15.038 -15.5369 5.17771
rclavicle -8.34896e-015 -2.6339e-014
rhumerus -65.3078 -36.4087 -31.32
rradius 94.0376
rwrist 24.5546
rhand -35.8101 35.8153
rfingers 7.12502
rthumb -8.92655 6.02414
lclavicle -8.34896e-015 -2.6339e-014
lhumerus -7.86178 0.108433 32.1154
lradius 69.545
lwrist 7.35609
lhand -26.0609 6.77921
lfingers 7.12502
lthumb 0.48695 36.7584
rfemur -73.9267 2.41029 4.88876
rtibia 87.298
rfoot -14.9025 -6.3207
rtoes -12.3411
lfemur -65.8797 10.0987 7.26718
ltibia 70.0802
lfoot -4.55825 -7.15994
ltoes -30.7651
185
root 12.368 11.655 11.8067 -12.4156 22.7452 -1.66539
lowerback 44.6129 -7.42738 -2.18667
upperback 15.7156 -8.83197 5.11563
thorax -1.95425 -4.6091 9.84186
lowerneck 1.68457 -21.2329 -10.0944
upperneck 23.931 -35.6313 24.7016
head 15.1956 -15.6215 5.18975
rclavicle -8.7664e-014 1.46504e-013
rhumerus -65.3326 -36.4391 -31.3768
rradius 93.1582
rwrist 24.58
rhand -36.876 37.0058
rfingers 7.12502
rthumb -9.95502 7.26124
lclavicle -8.7664e-014 1.46504e-013
lhumerus -7.75529 0.0866184 31.6664
lradius 69.2114
lwrist 7.17032
lhand -25.7393 6.26782
lfingers 7.12502
lthumb 0.797523 36.2461
rfemur -74.4913 2.44988 4.68417
rtibia 87.1092
rfoot -15.2968 -7.33492
rtoes -10.3729
lfemur -66.5164 10.0477 7.32179
ltibia 70.7592
lfoot -4.02077 -7.90637
ltoes -34.078
186
root 12.3641 11.6751 11.7485 -11.6299 22.6239 -1.39375
lowerback 44.5862 -7.3931 -2.23353
upperback 15.205 -8.82072 5.06932
thorax -2.52503 -4.56307 9.85285
lowerneck 1.50155 -21.2835 -10.4003
upperneck 23.9802 -35.6329 24.4131
head 15.227 -15.6327 5.08534
rclavicle 4.37823e-014 -2.5842e-014
rhumerus -65.5138 -36.1008 -31.0717
rradius 92.4044
rwrist 24.5751
rhand -38.2317 38.31
rfingers 7.12502
rthumb -11.2627 8.6324
lclavicle 4.37823e-014 -2.5842e-014
lhumerus -8.03549 0.143225 31.446
lradius 68.9756
lwrist 6.96756
lhand -25.4765 6.11842
lfingers 7.12502
lthumb 1.05138 36.0956
rfemur -75.2193 2.53942 4.27587
rtibia 87.2221
rfoot -15.6628 -8.18301
rtoes -8.31605
lfemur -67.1081 10.1681 7.19467
ltibia 71.7475
lfoot -3.2502 -8.62819
ltoes -33.9728
187
root 12.3516 11.668 11.6997 -10.9918 22.5366 -0.91486
lowerback 44.4381 -7.16646 -2.69389
upperback 14.9044 -8.75532 4.99659
thorax -2.7949 -4.52778 9.99843
lowerneck 1.39275 -21.3598 -10.7793
upperneck 23.9616 -35.6515 24.1594
head 15.2423 -15.6689 5.00193
rclavicle -2.52457e-014 1.81391e-014
rhumerus -65.7619 -35.7825 -30.8481
rradius 91.7598
rwrist 23.7757
rhand -38.6003 39.7917
rfingers 7.12502
rthumb -11.6183 10.1338
lclavicle -2.52457e-014 1.81391e-014
lhumerus -8.24639 0.277391 31.1652
lradius 68.7572
lwrist 6.76863
lhand -25.5926 6.34848
lfingers 7.12502
lthumb 0.939262 36.3262
rfemur -75.9634 2.62489 3.66172
rtibia 87.7757
rfoot -16.1719 -8.60763
rtoes -7.92285
lfemur -67.6097 10.3966 6.90169
ltibia 73.0003
lfoot -2.13622 -9.39578
ltoes -32.1635
188
root 12.3454 11.6441 11.6595 -10.5401 22.3668 -0.316736
lowerback 44.1622 -6.79628 -3.31065
upperback 14.8958 -8.58762 4.84899
thorax -2.71162 -4.46887 10.0719
lowerneck 1.31698 -21.5154 -11.1572
upperneck 23.335 -35.9658 24.8987
head 15.3572 -15.8327 5.17826
rclavicle -1.96797e-014 1.85864e-014
rhumerus -65.8667 -35.7005 -30.7673
rradius 91.1198
rwrist 23.0667
rhand -38.8932 40.8228
rfingers 7.12502
rthumb -11.9007 11.1811
lclavicle -1.96797e-014 1.85864e-014
lhumerus -7.98176 0.625724 30.735
lradius 68.3443
lwrist 6.55983
lhand -25.5472 6.31303
lfingers 7.12502
lthumb 0.983074 36.2905
rfemur -76.5708 2.66244 2.96336
rtibia 88.8158
rfoot -16.7302 -8.21673
rtoes -6.75418
lfemur -67.8874 10.5772 6.56011
ltibia 74.5045
lfoot -1.28325 -10.0269
ltoes -31.6518
189
root 12.3426 11.6249 11.6273 -10.3762 21.986 -0.0555088
lowerback 44.037 -6.50509 -3.58502
upperback 14.8582 -8.37401 4.70935
thorax -2.74493 -4.36717 9.97871
lowerneck 1.43204 -21.6132 -11.6051
upperneck 22.5607 -36.1643 25.7069
head 15.375 -15.9808 5.43826
rclavicle 1.21756e-014 -4.62174e-014
rhumerus -65.874 -35.3575 -30.6296
rradius 90.5775
rwrist 22.7301
rhand -39.6261 40.7997
rfingers 7.12502
rthumb -12.6073 11.2002
lclavicle 1.21756e-014 -4.62174e-014
lhumerus -7.74278 0.962773 30.1986
lradius 67.912
lwrist 6.47675
lhand -25.4658 6.23636
lfingers 7.12502
lthumb 1.06164 36.2135
rfemur -76.9623 3.04296 2.60798
rtibia 90.2243
rfoot -16.7241 -7.74976
rtoes -5.91681
lfemur -67.7697 10.8692 6.65884
ltibia 76.0769
lfoot -0.766909 -10.7335
ltoes -31.5873
190
root 12.3352 11.5943 11.5972 -10.4913 21.6094 -0.216659
lowerback 44.2099 -6.3666 -3.5847
upperback 14.5989 -8.21971 4.72729
thorax -3.10666 -4.27106 9.97729
lowerneck 1.51547 -21.6871 -12.1822
upperneck 22.4629 -36.1828 25.5238
head 15.3802 -16.0472 5.41883
rclavicle 1.02722e-013 -1.30254e-013
rhumerus -66.0674 -34.5493 -30.1779
rradius 90.1958
rwrist 22.0443
rhand -39.7591 41.0209
rfingers 7.12502
rthumb -12.7355 11.4293
lclavicle 1.02722e-013 -1.30254e-013
lhumerus -8.10685 1.20229 29.6908
lradius 67.7053
lwrist 6.62274
lhand -25.9222 6.43563
lfingers 7.12502
lthumb 0.620848 36.4145
rfemur -77.2718 3.49059 2.70155
rtibia 92.0587
rfoot -16.6272 -7.20778
rtoes -5.09724
lfemur -67.5194 11.1557 7.29229
ltibia 77.4969
lfoot -0.174859 -11.3471
ltoes -29.9481
191
root 12.3261 11.528 11.5722 -10.8004 21.4576 -0.162602
lowerback 44.0592 -6.21557 -3.7889
upperback 14.7019 -8.14537 4.55005
thorax -2.96281 -4.2452 9.84283
lowerneck 1.47048 -21.7937 -12.4783
upperneck 22.1992 -36.2235 25.4238
head 15.3001 -16.1049 5.37444
rclavicle 1.01629e-014 -3.85145e-015
rhumerus -66.5502 -34.1651 -29.7292
rradius 89.8307
rwrist 21.2964
rhand -39.4099 42.1266
rfingers 7.12502
rthumb -12.3989 12.5143
lclavicle 1.01629e-014 -3.85145e-015
lhumerus -8.12058 1.67704 28.8572
lradius 67.4639
lwrist 6.92978
lhand -25.9798 6.66399
lfingers 7.12502
lthumb 0.565233 36.643
rfemur -77.4357 3.44351 2.82865
rtibia 94.4342
rfoot -16.3775 -6.82518
rtoes -6.07803
lfemur -67.1708 11.151 7.7947
ltibia 78.5682
lfoot 0.534231 -11.7031
ltoes -27.9974
